<svg width="353" height="500" viewBox="0 0 353 500" xmlns="http://www.w3.org/2000/svg"><g fill="none" fill-rule="evenodd"><path d="M134.21 387.208a5.702 5.702 0 00-1.17-1.097 3.801 3.801 0 002.048-2.12c.658-1.608.073-3.362-.658-4.824a1.681 1.681 0 000-.293c1.316-.511 1.243-2.778-.439-2.778l-26.316.658a546.288 546.288 0 001.39-26.754c.292-9.137.584-18.421-.293-27.558h5.19c2.85.073 5.775.292 8.626.146 1.242-.073 2.631-.073 3.582-1.097.95-1.023.073-6.506-1.316-8.333-1.39-1.828-7.237-1.535-10.161-1.608l-34.064-.439c-1.39 0-1.682 1.754-.804 2.412-.366 2.559-1.097 6.652 1.17 7.968 2.265 1.316 5.19.439 7.163.512l8.626.146h1.68c-.584 3.655-.365 7.456-.438 11.184-.073 5.044-.073 10.088-.073 15.132 0 9.43-.511 19.079.293 28.509h-6.36c-5.775-.147-11.623 0-17.325-.147a1.17 1.17 0 00-1.242.805.877.877 0 00-.804.657 18.933 18.933 0 00-.439 3.29c-.024.37.14.728.439.95.039.613.112 1.223.219 1.828.042.694.165 1.38.365 2.047l-1.096.657a5.336 5.336 0 00-1.243 6.872c2.924 4.897 11.989 2.339 11.404-3.509-.146-1.754-1.9-3.143-3.655-3.801a1.243 1.243 0 000-1.243c-.366-.73-.804-1.827-1.535-2.34 6.944.147 13.889 0 20.76-.145-.146.585-.292 1.242-.439 1.827-.147.622.2 1.254.804 1.462l2.559.658a3.44 3.44 0 00-1.17.512c-1.17.877-1.681 2.704-1.608 4.313a5.117 5.117 0 001.828 4.824c3.8 3.07 8.406-.365 8.333-4.751a4.46 4.46 0 00-2.85-4.46l-.732-.292 1.974-.219c1.681-.292 4.02-.877 4.02-2.997a3.14 3.14 0 00-.292-1.389l12.573-.439h4.898a4.97 4.97 0 00-.731 1.755 1.9 1.9 0 001.023 1.827 3.947 3.947 0 00-1.828 3.582 3.582 3.582 0 002.705 4.825l.877.365c2.12.731 4.313.293 5.337-1.9a5.263 5.263 0 00-.804-5.19z" fill="#EFF3F6" fill-rule="nonzero"/><path d="M146.053 256.433a20.102 20.102 0 00-8.188-5.337c-3.728-1.315-8.04-1.388-11.622-3.289-5.19-2.85-5.117-10.234-5.556-15.35a108.626 108.626 0 01-.22-15.132c.805-14.986 9.43-39.693-9.21-47.954h-.073c-7.164-6.652-18.348-9.064-28.362-9.356-12.72-.366-28.875 1.608-34.723 14.62-3.655 8.114-4.459 18.128-5.701 26.9-1.243 8.772-2.34 17.836-2.997 26.754-.658 8.919-1.097 19.518-1.024 29.24.073 7.895.22 15.863 1.828 23.611 1.389 6.58 3.947 12.939 8.48 18.056 4.531 5.117 11.914 8.845 19.005 10.746 8.333 2.266 17.105 3.07 25.658 3.874a266.74 266.74 0 0028.363 1.096c7.31-.146 15.277-.804 21.564-4.897 6.286-4.094 8.991-9.796 10.38-16.302 2.558-12.061 1.023-27.924-7.602-37.28z" fill="#F8FAFB" fill-rule="nonzero"/><path d="M62.865 167.032c-2.85 3.29-4.166 7.676-5.043 11.842-1.828 8.626-1.535 17.471-1.682 26.243-.292 16.959-.658 33.772 1.097 50.658.73 7.31 2.193 14.839 6.067 21.272a30.117 30.117 0 0015.643 12.646c12.5 4.459 26.243 2.85 39.255 2.632 13.011-.22 23.903-.293 35.892-.805 1.9-11.622.073-26.315-8.041-35.087a20.102 20.102 0 00-8.188-5.337c-3.728-1.315-8.04-1.388-11.622-3.289-5.19-2.85-5.117-10.234-5.556-15.35a108.626 108.626 0 01-.22-15.132c.805-14.986 9.43-39.693-9.21-47.954h-.073c-7.164-6.652-18.348-9.064-28.362-9.356a73.684 73.684 0 00-12.281.584c-2.705 1.974-5.483 3.875-7.676 6.433z" fill="#EFF3F6" fill-rule="nonzero"/><g fill-rule="nonzero"><path d="M.365 67.617c.147-14.912-.877-29.97 0-44.883.366-6.433 0-13.158 0-19.81 16.082-.22 33.407-.512 49.343.439 11.257.73 22.734.219 33.99-.439a24.72 24.72 0 004.68 0c.292 17.617-.147 35.307-.147 52.85 0 11.6-.024 23.198-.073 34.796 0 7.383.146 14.84 0 22.295-.293 3.729-.366 7.457-.804 11.185l-.146.95-1.901.439C56.652 126.535 29.02 125.95.365 125c.366-19.079-.146-38.231 0-57.383z" fill="#EFF3F6"/><path d="M7.456 24.269c.073-4.751.146-9.503.073-14.254 6.872.146 13.719.195 20.541.146 9.21 0 18.421-.22 27.559-.439l13.815-.292c2.413-.073 7.091.658 10.088.292v.073c.804 15.936 1.462 31.872 1.462 47.88 0 4.825-.22 55.775-.292 60.746-.057.19-.082.387-.073.585v.585h-3.363c-5.482-.073-68.64.73-68.567.292v.146h-.512c.073-10.672.22-68.494-.73-95.76z" fill="#FFF"/><path d="M80.702 118.494c-.057.19-.082.387-.073.585v.585h-3.363c-5.482-.073-68.64.73-68.567.292v.146h-.512c.073-5.19.146-21.418.073-39.839h7.822V69.152h7.602v4.678h4.971v3.655h6.14v-6.798h5.702v6.725h3.728V62.208h9.284v11.55h4.97V53.8h6.872v23.54h6.871V66.813h5.336V80.19h3.363c-.073 16.082-.146 35.307-.22 38.304z" fill="#F8FAFB"/></g><g fill-rule="nonzero"><path d="M308.406 211.842c-3.581.073-7.31.804-9.356 2.705l6.14 5.19a27.558 27.558 0 003.29-.512l-.074-7.383z" fill="#E3E9ED"/><path d="M308.406 212.865a24.632 24.632 0 00-4.459.44 13.231 13.231 0 00-4.24 1.9l5.41 4.605a27.266 27.266 0 003.29-.366v-6.579z" fill="#E3E9ED"/><path d="M308.406 211.842c3.582.073 7.31.804 9.357 2.705l-6.14 5.19a27.558 27.558 0 01-3.29-.512l.073-7.383z" fill="#E3E9ED"/><path d="M308.406 212.865c1.497.011 2.99.158 4.46.44a13.231 13.231 0 014.24 1.9l-5.41 4.605a27.266 27.266 0 01-3.29-.366v-6.579z" fill="#E3E9ED"/><path d="M299.78 201.681c-2.265 0-2.704 2.34-2.338 6.287.511 5.263 6.505 5.702 7.09 5.702.146 2.485 0 6.432 0 6.432s1.243.878 2.047.878c3.363 0 6.286-.147 6.213-1.243-.073-1.097-1.315-11.184.878-11.184 3.508 0 4.97-1.974 4.97-8.26 0-6.287-1.754-6.36-2.631-6.36-2.705 0-3.436 3.07-3.29 6.067.293 4.386-1.973 2.34-2.193.804-.219-1.535 1.17-10.16-2.412-10.16s-3.874 4.458-3.874 14.107c0 4.167-2.34 2.778-2.34.658.147-1.023-.146-3.728-2.12-3.728z" fill="#F8FAFB"/><path d="M304.532 212.28v-.511a20.322 20.322 0 01-4.824-1.096 10.93 10.93 0 01-1.755-.95c1.39 3.362 5.483 3.947 6.652 3.947 0-.512-.073-.95-.073-1.39zm12.646-5.555c-.877.804-2.485.658-3.29.804a2.193 2.193 0 00-1.607 2.34c.073.95.073 1.973.146 2.923.073-1.827.512-3.216 1.316-3.216 2.924 0 4.386-1.608 4.824-6.36-.438 1.462-.219 2.486-1.389 3.51zm.585 7.822c-1.17 1.17-5.263 1.681-9.357 1.608-4.093-.073-8.187-.439-9.356-1.608 0 0-.146 16.813 2.631 18.567l1.243.658a13.962 13.962 0 0010.965 0l1.243-.658c2.777-1.754 2.631-18.567 2.631-18.567z" fill="#EFF3F6"/></g><path d="M262.573 229.532a1.17 1.17 0 00-1.17-1.17c-4.459.293-8.918.44-13.45.732l-7.529.292a1.243 1.243 0 00-1.17.877v.366a1.243 1.243 0 001.17 1.535l11.769.292c2.997.073 6.652.731 9.576.146.397-.097.707-.407.804-.804a6.944 6.944 0 000-2.266z" fill="#E3E9ED" fill-rule="nonzero"/><path d="M298.904 146.857c-.074-1.755-.585-3.144-2.12-3.217a2333.762 2333.762 0 00-45.176-2.046c-7.383-.293-14.693-.366-22.076-.731-7.383-.366-13.304-1.755-19.59.438-3.363 1.17-3.582 3.655-4.386 6.945-2.34 10.014-4.606 20.029-6.652 30.043-1.097 5.41-2.413 10.746-3.07 16.229-.293 2.558-2.12 12.426.95 13.888a3.728 3.728 0 001.68.22c28.51-.658 57.165-1.097 85.673-1.535 3.875-.073 3.948-8.26 4.752-11.477 2.12-9.064 4.313-18.056 6.213-27.193.95-4.605 1.828-9.284 2.559-13.962.292-1.243 1.316-4.898 1.243-7.602z" fill="#EFF3F6" fill-rule="nonzero"/><path d="M291.594 232.31a.731.731 0 00-.366-.366.585.585 0 00-.22-.365 256.213 256.213 0 01-29.385-31.506c-.877-1.096-1.974-3.728-3.582-3.801-3.728-.073-7.456-.366-11.184-.22-.585 0-.877.293-.804.585a.439.439 0 00-.22.293c-1.023 5.994 4.606 11.623 6.945 16.74 1.681 3.728 2.997 7.602 4.459 11.403 1.462 3.801 2.339 7.749 5.702 8.699 3.362.95 8.48.512 11.696.585 4.605.073 9.795.292 14.327-.22 1.9-.219 3.143-.73 2.632-1.827zm-251.609 3.582c0-.731 0-1.39-.073-2.12a.439.439 0 00-.877 0c-.073.658-.073 1.316-.073 1.9l-8.187.293c-2.12.073-4.386-.146-6.287.658a.365.365 0 00-.584.365c.146 29.679 1.242 59.43 2.046 89.108l1.17 44.884c.195 7.504.414 14.985.658 22.441.097 3.752.22 7.505.365 11.257l.22 5.629c.073 1.9-1.097 4.313.877 5.775.564.383 1.22.61 1.9.658 1.755.22 5.629-.22 6.58-1.828.95-1.608.145-2.12.145-3.07l.147-5.629c.097-3.752.17-7.504.219-11.257l.439-22.514a14033.806 14033.806 0 001.17-89.913c.048-2.826.072-5.677.072-8.552.073-12.135.439-24.416.22-36.55a1.023 1.023 0 00-.147-1.535zm77.193 0c0-.731 0-1.39-.073-2.12a.439.439 0 10-.877 0c-.073.658-.073 1.316-.073 1.9l-8.187.293c-2.12.073-4.386-.146-6.287.658a.365.365 0 00-.585.365c.147 29.679 1.243 59.43 2.047 89.108l1.17 44.884c.195 7.504.414 14.985.658 22.441.097 3.752.22 7.505.365 11.257l.22 5.629c.073 1.9-1.097 4.313.877 5.775.564.383 1.22.61 1.9.658 1.755.22 5.629-.22 6.58-1.828.95-1.608.145-2.12.145-3.07l.147-5.629c.097-3.752.17-7.504.219-11.257l.439-22.514a14033.806 14033.806 0 001.17-89.913c.048-2.826.072-5.677.072-8.552.073-12.135.439-24.416.22-36.55a1.023 1.023 0 00-.147-1.535z" fill="#E3E9ED" fill-rule="nonzero"/><path d="M40.132 246.126c0-2.851 0-5.775-.074-8.626a1.023 1.023 0 00-.073-1.608c0-.731 0-1.39-.073-2.12a.439.439 0 00-.877 0c-.073.658-.073 1.316-.073 1.9l-8.187.293c-2.12.073-4.386-.146-6.287.658a.365.365 0 00-.584.365c0 3.022.024 6.043.073 9.065 5.409.292 10.745.219 16.155.073zm77.193-.586c0-2.704 0-5.408-.074-8.04a1.023 1.023 0 00-.073-1.608c0-.731 0-1.39-.073-2.12a.439.439 0 10-.877 0c-.073.658-.073 1.316-.073 1.9l-8.187.293c-2.12.073-4.386-.146-6.287.658a.365.365 0 00-.585.365c0 2.851.074 5.702.074 8.553h16.155z" fill="#CFD9E0" fill-rule="nonzero"/><path d="M269.737 235.892c0-.731 0-1.39-.073-2.12a.439.439 0 00-.877 0c-.074.658-.074 1.316-.074 1.9l-8.187.293c-2.12.073-4.386-.146-6.286.658a.365.365 0 00-.585.365c.146 29.679 1.243 59.43 2.047 89.108l1.17 44.884c.194 7.504.414 14.985.657 22.441.098 3.752.22 7.505.366 11.257l.219 5.629c.073 1.9-1.096 4.313.877 5.775.565.383 1.22.61 1.9.658 1.755.22 5.63-.22 6.58-1.828.95-1.608.146-2.12.146-3.07l.146-5.629c.098-3.752.17-7.504.22-11.257l.438-22.514a14033.806 14033.806 0 001.17-89.913c.048-2.826.073-5.677.073-8.552.073-12.135.438-24.416.219-36.55a1.023 1.023 0 00-.146-1.535zm77.193 0c0-.731 0-1.39-.073-2.12a.439.439 0 10-.877 0c-.074.658-.074 1.316-.074 1.9l-8.187.293c-2.12.073-4.386-.146-6.286.658a.365.365 0 00-.585.365c.146 29.679 1.243 59.43 2.047 89.108l1.17 44.884c.194 7.504.414 14.985.657 22.441.098 3.752.22 7.505.366 11.257l.219 5.629c.073 1.9-1.096 4.313.877 5.775.565.383 1.22.61 1.9.658 1.755.22 5.63-.22 6.58-1.828.95-1.608.146-2.12.146-3.07l.146-5.629c.098-3.752.17-7.504.22-11.257l.438-22.514a14033.806 14033.806 0 001.17-89.913c.048-2.826.073-5.677.073-8.552.073-12.135.438-24.416.219-36.55a1.023 1.023 0 00-.146-1.535z" fill="#EFF3F6" fill-rule="nonzero"/><path d="M269.883 246.126c0-2.851 0-5.775-.073-8.626a1.023 1.023 0 00-.073-1.608c0-.731 0-1.39-.073-2.12a.439.439 0 00-.877 0c-.074.658-.074 1.316-.074 1.9l-8.187.293c-2.12.073-4.386-.146-6.286.658a.365.365 0 00-.585.365c0 3.022.024 6.043.073 9.065 5.41.292 10.746.219 16.155.073z" fill="#CFD9E0" fill-rule="nonzero"/><path d="M347.076 245.54c0-2.704 0-5.408-.073-8.04a1.023 1.023 0 00-.073-1.608c0-.731 0-1.39-.073-2.12a.439.439 0 10-.877 0c-.074.658-.074 1.316-.074 1.9l-8.187.293c-2.12.073-4.386-.146-6.286.658a.365.365 0 00-.585.365c0 2.851.073 5.702.073 8.553h16.155z" fill="#E3E9ED" fill-rule="nonzero"/><path d="M350.95 231.725h-.658c-46.272-.804-92.543-.22-138.815-.22H13.45c-.073 1.244-.219 2.56-.365 3.802a21.564 21.564 0 00.146 3.07l.146.877a.365.365 0 00.658 0c21.71.731 43.421.293 65.132.293h199.05c24.707 0 49.488.292 74.268-.146.147-2.559 0-5.19-.073-7.749l-1.462.073z" fill="#EFF3F6" fill-rule="nonzero"/><path d="M124.342 231.579H13.45c-.073 1.243-.219 2.558-.365 3.801a20.06 20.06 0 00.146 3.07l.146.877a.439.439 0 00.731 0c23.246.731 46.565.293 69.737.293H125c-.22-2.632-.512-5.336-.658-8.041z" fill="#E3E9ED" fill-rule="nonzero"/><path d="M264.84 471.199c-55.19-4.02-111.55-1.755-166.814-.95-3.435.073-5.555 3.362-2.85 5.263 4.532 3.216 7.529 2.558 12.865 4.093 5.336 1.535 7.164 1.682 8.04 5.921.22 1.024-1.461 2.486-1.096 3.582 1.535 4.46 5.19 6.067 9.576 6.067.074.439-.804 2.998-.073 3.07 20.103 1.609 33.48-6.067 50.073-7.163 20.395-1.389 49.05 10.088 59.869 8.772 2.631-.293 4.532-3.29 5.482-4.679a11.33 11.33 0 007.895-3.728c3.874-4.24 3.143-6.067 11.33-9.356 4.533-1.828 7.091-1.682 10.088-5.264 2.997-3.581-.804-5.336-4.386-5.628z" fill="#EFF3F6" fill-rule="nonzero"/><path d="M254.97 488.743c-4.824-3.436-12.28-3.655-17.982-4.386-7.163-.95-15.497-2.559-22.514-.366a2.778 2.778 0 000 5.336c5.409 1.609 11.11 1.024 16.74 1.536l7.31.657c-2.12.074-4.094.147-5.337.293l-14.035 1.827c-2.193.293-1.462 3.51.512 3.655 7.483.707 15.009.853 22.514.439 4.971-.292 9.65.073 13.524-3.29 1.973-1.462 1.023-4.386-.731-5.701zm-98.683-6.213c-9.211-2.925-20.541-3.07-30.117-2.56-7.237.366-16.448 1.536-21.857 6.872a3.874 3.874 0 00-1.024 3.874c1.609 4.02 3.802 4.386 7.895 5.044a122.295 122.295 0 0027.486 1.535c2.558-.146 3.29-3.947.657-4.605a126.755 126.755 0 00-14.766-2.924l-7.31-.95h-.438c11.696-3.436 29.02 2.12 39.547.511 3.582-.657 2.924-5.847-.073-6.798zm85.38-16.375l-60.746-.439c-18.567-.146-37.792-1.17-56.14.512-4.313.366-4.167 4.532 0 4.97 18.275 1.901 37.573 1.17 56.14 1.317l60.746.438c7.529 0 7.529-6.725 0-6.798z" fill="#EFF3F6" fill-rule="nonzero"/><path d="M137.28 454.386c-6.14 2.778-12.06 15.643-12.134 18.494-.073 2.851-9.064.585-11.038 9.576-1.973 8.991.073 15.936 23.173 15.57 8.699-.146 8.114-6.432 13.45-6.652 5.336-.219 10.088-1.754 10.307-4.532.22-2.778 1.023-23.246-6.506-31.725-7.53-8.48-17.251-.731-17.251-.731zm87.428 1.754c6.14 2.778 12.061 15.644 12.134 18.495.073 2.85 9.064.584 11.038 9.576 1.974 8.99-.073 15.935-23.172 15.57-8.7-.146-8.114-6.433-13.45-6.652-5.337-.22-10.088-1.755-10.308-4.533-.219-2.777-1.023-23.245 6.506-31.725 7.53-8.48 17.252-.73 17.252-.73z" fill="#FDB02A" fill-rule="nonzero"/><path d="M149.635 466.228c.686 0 1.242.556 1.242 1.243.293 2.558-.658 4.459 1.535 5.19 2.193.73 5.41-3.07 6.945-4.752l.438-.511c-.95-4.679-2.558-9.21-5.263-12.208-7.53-8.48-17.251-.804-17.251-.804-2.193 1.023-4.386 3.363-6.287 5.994 4.97 5.19 11.404 6.287 18.64 5.848zm53.655 7.749c1.388 1.242 6.652 5.482 8.771 2.339.366-.585-.73-5.044-.804-6.214-.073-1.17.95-1.754 1.828-1.827 7.017-.877 13.377-1.17 18.933-4.46-2.12-3.362-4.752-6.432-7.383-7.675 0 0-9.723-7.675-17.252.804-3.29 3.655-4.97 9.65-5.848 15.424l1.754 1.609z" fill="#FFA100" fill-rule="nonzero"/><path d="M237.5 475.585c-5.556-4.386-17.398-.073-18.64 1.827m-1.462-3.728c2.85-3.362 15.497-5.41 17.251-3.143m-17.763-1.901c3.874-2.777 11.184-4.386 14.181-2.85m-15.277 10.599a22.953 22.953 0 01-5.19-10.673m-64.328 8.48c2.778-3.436 3.874-12.28 3.874-12.28" stroke="#FF7E00" stroke-width="2.12" stroke-linecap="round" stroke-linejoin="round"/><path d="M159.795 467.398c-1.389 6.286-7.968 15.79-14.693 14.912-3.435 8.04-17.544 6.652-24.269 4.751a28.801 28.801 0 01-6.944-3.362c-1.462 8.333 1.462 14.62 23.392 14.327 8.699-.146 8.114-6.432 13.45-6.652 5.336-.219 10.088-1.754 10.307-4.532a81.798 81.798 0 00-1.243-19.444zm88.378 18.348c-3.875 2.046-9.65 3.362-11.112 3.655-6.579 1.388-16.959.073-19.736-6.506-7.53 1.535-12.427-7.456-14.255-13.67l-.438-1.754c-2.193 8.991-1.755 19.298-1.609 21.199.147 1.9 4.971 4.312 10.307 4.532 5.337.22 4.752 6.506 13.45 6.652 21.638.22 24.708-5.921 23.393-14.108z" fill="#FFEEB4" fill-rule="nonzero"/><path d="M138.085 242.982c-7.018 8.041-3.655 23.027-6.652 31.799-2.997 8.772-.146 62.28 4.166 71.125 4.313 8.845-.073 21.93-2.12 27.924-2.046 5.995-3.216 17.983-1.608 33.48 1.609 15.497-4.24 30.555 3.51 41.594-4.168 5.774-8.48 5.043 2.338 12.134 10.819 7.09 24.708 1.023 21.272-6.725-3.435-7.749 4.02-38.085 6.287-53.07 2.266-14.986-1.243-26.462.585-31.433 1.827-4.97.82-7.434 3.95-15.422 3.13-7.988.947-9.432 2.19-14.037 1.243-4.605 4.093-53.801 4.093-53.801s5.117 4.532 9.65 2.339c-.95 45.906 9.576 69.152 8.552 79.02-1.023 9.869-3.874 29.386 2.486 45.395 6.36 16.009 5.92 26.754 6.213 33.187.292 6.433-6.506 10.527-1.316 11.404 5.19.877-4.532 5.555 4.532 7.237 9.065 1.68 25.805-1.024 28.436-8.114 2.632-7.091-9.576 2.412-5.775-5.848s1.243-8.626-.073-14.62-1.9-44.664-.512-54.02c1.39-9.357-4.897-21.273-1.535-25.22 3.363-3.947.585-8.991 2.413-19.006 1.827-10.015-.439-36.842 1.17-49.269 1.607-12.427-6.653-50.585-6.653-50.585l-85.6 4.532z" fill="#1273E9" fill-rule="nonzero"/><path d="M138.889 272.515c8.333 1.9 13.012 3.728 12.134-5.483 0-1.01.819-1.827 1.828-1.827 17.544 1.608 33.48 6.14 50.804.438a2.047 2.047 0 012.558 1.462c2.193 8.845 3.875 8.041 13.378 7.31l10.16-.877c-1.827-15.57-5.994-34.868-5.994-34.868l-85.672 4.386c-5.994 6.944-4.386 18.932-5.702 27.777a169 169 0 006.506 1.682zM158.114 450a29.532 29.532 0 01-3.29 5.117c-4.97 6.14-11.622 7.456-17.69 2.266a1.681 1.681 0 010-2.412c2.12-2.559 3.948-4.825 6.58-6.14a68.348 68.348 0 01-12.062-9.796 22.442 22.442 0 003.728 9.942c-4.167 5.774-8.48 5.043 2.34 12.134 10.818 7.09 24.707 1.024 21.271-6.725a13.158 13.158 0 01-.877-4.386zm70.833 1.316c2.997-6.506 2.047-8.114.878-11.477a31.14 31.14 0 00-4.02 9.796c-.951 4.312-1.097 8.04-4.899 10.964-2.631 2.047-5.848 2.851-8.698.805-2.851-2.047-2.559-6.068-4.094-5.044-1.535 1.023-2.997-.512-2.485-1.9 2.558-6.141.365-11.331-2.997-16.229.219 3.29.292 6.067.365 8.26.292 6.433-6.506 10.527-1.316 11.404 5.19.877-4.532 5.555 4.532 7.237 9.065 1.68 25.805-1.024 28.436-8.114 2.632-7.091-9.503 2.558-5.702-5.702z" fill="#0061D0" fill-rule="nonzero"/><path d="M199.635 78.801c-2.851-2.631-4.825-6.067-6.799-9.43-8.04-.146-16.593 2.778-22.441 8.48a1.754 1.754 0 01-1.462.512 112.297 112.297 0 01-3.436 4.751h-.073a37.573 37.573 0 00.95 13.67c2.851 10.599 22.734 9.941 30.19 5.848C204.02 98.538 200.22 85.16 200 82.31c0-1.023-.22-2.266-.365-3.509z" fill="#71CDFB" fill-rule="nonzero"/><path d="M200.073 82.31a76.096 76.096 0 00-1.243-7.749s-1.535-10.599-1.315-10.965c.219-.365-5.044-4.312-5.044-4.312l-24.635 7.09s-.804 5.775-.95 9.942c0 0-3.29 9.868-.439 20.468 1.17 4.459 5.41 6.944 10.454 7.967l-.147-.438-.146-.22a75.804 75.804 0 01-1.9-9.649c-.293-2.12-1.901-6.798-.731-8.771 1.17-1.974 3.362-.44 4.605-.22 3.728.731 7.602 1.39 11.111-.073 3.509-1.462 4.459-1.316 4.459 2.193-.073 5.19-.073 10.38-.439 15.57v.658a17.763 17.763 0 002.998-1.243c7.383-4.093 3.508-17.397 3.362-20.248z" fill="#00B2FF" fill-rule="nonzero"/><path d="M164.766 89.693c7.018 8.26 12.5 14.4 32.749 4.459 20.248-9.941 26.17 138.158 26.17 138.158s3.07 13.743-12.793 22.588-45.322 17.324-67.47-5.629c-22.15-22.953-.074-99.196-.074-99.196l.95-54.02 20.468-6.36z" fill="#FFEEB4" fill-rule="nonzero"/><path d="M160.015 246.272c.073-8.26 3.581-25.731 3.947-33.991.731-16.01.877-20.76 2.485-36.77 1.609-16.008 3.728-32.529 4.313-48.903.366-10.672-.658-21.272-1.242-31.944a58.845 58.845 0 01-4.679-5.044l-20.395 6.286-.95 54.02s-22.003 76.244.073 99.197a48.173 48.173 0 0015.205 10.819c.724-4.524 1.139-9.09 1.243-13.67zm63.742-14.035s-5.92-148.1-26.17-138.158l-3.143 1.462c0 .365-.073.73 0 1.023.124 4.047.026 8.098-.292 12.135 5.848 25.146 4.97 52.631 7.164 78.143 2.047 23.465 3.29 48.538.658 72.295a75.366 75.366 0 008.99-4.24c15.863-8.917 12.793-22.66 12.793-22.66z" fill="#FFDB79" fill-rule="nonzero"/><path d="M135.819 100.658c2.924 18.202-3.217 31.652-2.632 38.67 1.9 22.587-11.403 97.002-13.596 105.701-2.193 8.7 23.83 16.594 29.532 16.009 5.702-.585 27.558-157.018 25.438-164.474-2.12-7.456-7.017-14.912-7.821-20.321.292-3.801-9.43 13.377-18.275 10.892-8.845-2.486-22.953-4.46-19.956-.805a44.664 44.664 0 017.31 14.328z" fill="#FDB02A" fill-rule="nonzero"/><path d="M192.982 97.368c-1.17 2.778-6.798 1.536-6.36 3.802.44 2.266 2.12 10.891 2.852 14.18.73 3.29 8.99.732 8.845-1.242-.146-1.973-5.337-16.74-5.337-16.74z" fill="#FFA100" fill-rule="nonzero"/><path d="M198.83 74.561c-.438 6.506-1.68 16.228-5.848 19.372-4.166 3.143 2.778 17.982 4.606 35.745 1.827 17.764 14.254 118.056 14.327 126.097.073 8.04.731 7.821 11.55 6.579 10.819-1.243 26.681-12.135 27.047-14.474.365-2.34-28.363-108.48-29.167-114.254-.804-5.775 5.263-36.55 13.45-45.176-1.389-1.827-2.12.95-13.304 0-11.184-.95-22.441-17.105-22.66-13.889z" fill="#FDB02A" fill-rule="nonzero"/><path d="M133.772 95.102a43.933 43.933 0 0028.801-8.552 32.53 32.53 0 01-1.608-5.263c-3.509 3.508-8.114 7.09-12.427 5.848-8.845-2.486-22.953-4.46-19.956-.805a42.763 42.763 0 015.19 8.772z" fill="#004B82" fill-rule="nonzero"/><path d="M166.009 93.787a60.526 60.526 0 01-2.778-5.556c-6.725 6.652-17.763 10.015-28.29 9.722.366.95.658 1.828.878 2.705 2.924 18.202-5.629 13.377-5.263 20.395 1.827 37.28-8.772 114.327-10.965 123.83 4.751 3.655 15.862 6.36 21.418 7.53 1.897.415 3.832.635 5.775.657 1.68-12.573 6.798-25.292 8.698-37.792 2.559-17.325 4.094-34.722 5.702-52.12 1.39-15.278 2.924-30.629 5.19-45.833.877-5.848 1.755-11.989 2.851-18.13-1.316-2.046-2.412-4.02-3.216-5.408z" fill="#004B82" fill-rule="nonzero"/><path d="M127.266 186.988a105.556 105.556 0 0014.474-38.815c1.973-11.696 2.412-23.538-.585-35.161-1.316-5.263-3.655-10.088-5.629-15.059h-.584c.365.95.657 1.828.877 2.705 2.924 18.202-5.629 13.377-5.263 20.395.877 17.105-.878 42.543-3.29 65.935z" fill="#003864" fill-rule="nonzero"/><path d="M202.34 83.333c6.87 6.58 13.742 12.354 23.537 14.84 1.227.318 2.472.562 3.728.73 1.243-4.385 2.924-8.114 5.117-10.38-1.389-1.827-2.12.95-13.304 0-7.675-.658-15.278-8.406-19.444-12.207.48 2.306.603 4.673.365 7.017z" fill="#004B82" fill-rule="nonzero"/><path d="M228.874 101.608a40.57 40.57 0 01-9.21-2.778c-7.383-3.216-12.646-8.187-17.544-14.035a26.608 26.608 0 01-2.34 7.237 61.184 61.184 0 01-5.482 9.064c1.48 4.34 2.724 8.757 3.728 13.231 2.12 10.015 3.655 20.249 5.044 30.41 2.705 19.737 5.556 37.207 8.26 58.26 2.12 16.886 5.848 34.576 6.36 52.12 7.31-.292 25.731-9.284 32.383-11.404-.804-21.271-27.193-100.877-27.924-106.067-.512-3.728 3.947-24.415 6.725-36.038z" fill="#004B82" fill-rule="nonzero"/><path d="M222.222 179.46c2.632 8.99 6.506 16.593 17.836 19.005-7.748-27.559-17.178-56.725-17.836-60.453-1.827 8.918-2.924 31.652 0 41.447z" fill="#003864" fill-rule="nonzero"/><path d="M231.944 90.058c5.117-3.362 6.652-3.362 7.31-1.023.658 2.34 4.533 5.994 6.58 10.965 2.046 4.97 1.315 8.333 2.485 16.96 1.17 8.625 4.824 17.982 9.137 25.803 4.313 7.822 12.866 26.608 7.383 34.357-5.482 7.748-12.938 19.517-25.22 5.848-12.28-13.67-21.637-51.316-21.198-62.793.439-11.476 13.523-30.117 13.523-30.117z" fill="#FFA100" fill-rule="nonzero"/><path d="M174.196 18.86c-19.737 3.29-20.322 31.067-12.72 48.1 7.603 17.031 16.521 15.935 25.878 13.669 7.383-1.755 14.473-16.52 11.11-34.065-3.362-17.544-2.777-30.555-24.268-27.704z" fill="#71CDFB" fill-rule="nonzero"/><path d="M162.792 46.71a18.713 18.713 0 008.26-4.093c4.533-3.874 6.068-9.43 8.26-14.766l.293-.439a23.83 23.83 0 01.22-7.529l.219-1.462a40.132 40.132 0 00-5.702.366c-13.158 2.193-17.836 15.204-17.178 28.728 1.754-.512 3.582-.366 5.628-.804z" fill="#00B2FF" fill-rule="nonzero"/><path d="M159.43 59.576c-2.924-5.117-19.445-20.614-9.21-36.55 7.09-11.11 15.789-.658 15.789-.658s6.286 11.696.073 12.72c-6.214 1.023-4.532 5.263-5.848 10.014-1.316 4.752-.804 14.474-.804 14.474z" fill="#FFDB79" fill-rule="nonzero"/><path d="M141.813 16.886a1.096 1.096 0 00-1.608 1.17c2.704 12.646 13.011 24.195 23.684 21.198 10.672-2.997 11.769-3.435 13.743-8.772 1.242 1.536 8.333 1.536 11.695-2.339 3.363-3.874 6.58-10.16 4.386-15.131-2.193-4.971-11.257-18.86-25.438-8.626s-18.202 17.325-26.462 12.5z" fill="#FFDB79" fill-rule="nonzero"/><path d="M199.269 55.117c1.754-5.629 14.4-24.342.95-37.646-9.356-9.21-15.497 2.85-15.497 2.85S181.14 33.115 187.5 32.75c6.36-.366 5.556 4.166 7.968 8.48 2.412 4.312 3.801 13.888 3.801 13.888z" fill="#FFDB79" fill-rule="nonzero"/><path d="M158.04 52.193c-1.607-5.848-8.771-10.234-10.818-3.874-2.047 6.36 3.582 12.938 7.456 13.67 3.875.73 5.41-3.144 5.41-3.144l-2.047-6.652zm40.279-4.533c.292-6.066 6.286-11.914 9.722-6.14 3.436 5.775-.658 13.378-4.24 14.986-3.582 1.608-5.482-2.266-5.482-2.266v-6.58z" fill="#71CDFB" fill-rule="nonzero"/><path d="M144.664 32.09a1.023 1.023 0 00-1.828-.146c-3.874 7.091 3.07 15.424 9.869 13.67 6.798-1.754 11.11-6.871 17.251-8.26-5.336-7.53-9.795-4.752-15.35-2.705-5.556 2.047-7.822 2.559-9.942-2.558zm49.049-19.005c-2.266-4.971-11.257-18.933-25.438-8.699s-18.202 17.325-26.462 12.5a1.096 1.096 0 00-1.17 0c.214.821.483 1.627.804 2.412 3.728 9.21 11.404 4.532 18.056 2.705 8.918-2.485 14.62 2.632 19.298 9.137 2.412.731 7.749.22 10.6-2.997 2.85-3.216 6.505-10.087 4.312-15.058z" fill="#FFEEB4" fill-rule="nonzero"/><path d="M147.734 21.784c2.997 1.17 12.208-7.237 18.786 1.096" stroke="#FFDB79" stroke-width="2.12" stroke-linecap="round" stroke-linejoin="round"/><path d="M177.34 33.918c-6.653 5.994-22.515 5.702-24.05-8.845a.804.804 0 011.461-.512c3.436 4.825 8.7 2.34 13.816-2.046 5.117-4.386 15.424 2.485 8.772 11.403z" fill="#FFEEB4" fill-rule="nonzero"/><path d="M268.494 136.257c2.997-.877 27.632 9.43 17.325 15.205-10.307 5.775-16.01 0-16.01 0s-2.85-6.287-2.85-6.506c0-.22.439-5.629.658-6.652a7.22 7.22 0 01.877-2.047z" fill="#004174" fill-rule="nonzero"/><path d="M279.532 152.632c2.559-3.436 5.629-4.167 9.869-2.997 5.774 1.68 13.377.73 16.886-2.998 3.508-3.728 11.842-17.397 6.505-18.274-5.336-.878-6.36 5.774-9.649 6.14-3.29.365-7.968 1.827-12.061-1.608-4.094-3.436-6.945-6.287-11.623-5.044-4.678 1.243-6.36 2.558-6.798 6.652-.439 4.093-1.9 5.702-3.363 8.626-1.462 2.924 4.167 12.134 6.798 11.622 2.632-.511 3.436-2.12 3.436-2.12z" fill="#71CDFB" fill-rule="nonzero"/><path d="M303.216 134.503c-3.216.365-7.967 1.827-12.061-1.608l-.95-.804a48.319 48.319 0 00-6.945.146c-1.86.284-3.677.8-5.41 1.535a18.713 18.713 0 003.51 5.629c2.704 2.777 5.775 3.8 8.99 4.678 1.682.22 3.29.439 4.972.804l.658.146 2.704-.146 1.535-.439c4.46-4.532 10.161-9.283 10.307-15.935-3.435 1.023-4.605 5.702-7.31 5.994zm-23.246 11.403c-3.581-1.023-7.82-1.754-10.599-.146.878 3.875 4.752 9.357 6.872 8.991 2.12-.365 3.362-2.12 3.362-2.12 2.12-2.85 4.679-3.874 7.968-3.362a54.898 54.898 0 01-7.602-3.363z" fill="#00B2FF" fill-rule="nonzero"/><path d="M280.482 138.596c8.772 1.024 11.258-6.505 13.45-7.602 2.194-1.096 8.846-1.754 7.895-4.386-.438-1.243-6.36-2.485-10.672-2.193-4.313.293-13.962 3.217-16.594 5.702a109.1 109.1 0 014.02 8.26l1.901.22z" fill="#71CDFB" fill-rule="nonzero"/><path d="M280.702 152.12c-3.436 2.193-7.09-.877-10.234-4.605-3.143-3.728 1.096-13.597-3.29-10.527-2.631 9.869-5.043 12.647-13.889 16.594-8.845 3.947-14.18 9.357-13.084 16.082 1.096 6.725.804 18.055 12.573 17.91 11.769-.147 20.98-8.407 21.93-17.618.804-7.748 6.286-14.474 9.137-17.032a7.675 7.675 0 01-3.143-.804z" fill="#FDB02A" fill-rule="nonzero"/><path d="M280.702 152.12c-1.682 1.023-3.363.877-5.044 0-2.559 4.24-4.46 8.699-6.652 13.377-2.193 4.678-4.167 9.21-8.407 11.404-4.24 2.193-12.865 1.315-19.59-1.536.95 5.995 2.997 12.281 11.769 12.135 11.769-.22 20.98-8.406 21.93-17.617.804-7.748 6.286-14.474 9.137-17.032a7.675 7.675 0 01-3.143-.731z" fill="#FF9100" fill-rule="nonzero"/><path d="M264.254 154.46c2.266 5.335 8.626 5.7 13.89 5.482 2.558-4.386 5.774-7.53 7.017-8.115 1.243-.584-.073-1.827-4.167 0-2.12.95-6.579-.219-9.503-4.385-4.532-6.36 0-13.597-4.386-10.527-1.17 4.313-2.266 7.237-3.874 9.576-.29 2.7.06 5.43 1.023 7.968z" fill="#004B82" fill-rule="nonzero"/><path d="M260.307 149.635c-7.675 5.116-21.272 8.26-20.102 20.029" stroke="#FF7E00" stroke-width="2.12" stroke-linecap="round" stroke-linejoin="round"/><path d="M301.9 136.623c.074 2.339-1.461 6.433-3.216 8.26M281.36 139.4c6.725-.146 9.356-4.897 9.356-4.897" stroke="#008CF7" stroke-width="2.12" stroke-linecap="round" stroke-linejoin="round"/><path d="M131.067 87.354c-4.532-2.705-6.871-.22-6.871 2.339 0 2.558-7.164 6.944-11.33 11.696-4.167 4.751 1.315 9.357-5.044 18.713-6.36 9.357-7.53 25.731-13.743 40.57-3.874 9.211-10.819 28.51 1.023 32.457 21.272 7.09 31.506-32.749 35.161-40.278 3.655-7.53 3.728-11.77 6.287-14.986a28.216 28.216 0 006.213-21.345c-1.535-11.257-4.678-25-11.696-29.166z" fill="#FFA100" fill-rule="nonzero"/><path d="M62.135 151.243c-.658-5.629 16.593-18.568 21.125-12.72 4.532 5.848-.292 11.185-.292 11.185l-7.822 4.093s-6.36 1.9-6.725 1.39c-.365-.513-6.286-3.948-6.286-3.948z" fill="#004174" fill-rule="nonzero"/><path d="M79.678 148.319c-6.652 5.994-7.675 4.897-11.842 2.631-4.166-2.266-12.354 1.682-17.032-1.9-4.678-3.582-17.69-21.492-10.965-25.512 6.725-4.02 7.164 8.553 13.962 9.137 6.798.585 13.231-5.701 19.59-3.728 6.36 1.974 7.457 7.237 7.384 12.427-.073 5.19-1.097 6.945-1.097 6.945z" fill="#71CDFB" fill-rule="nonzero"/><path d="M55.921 145.102l2.705-.511c3.947-1.17 8.114-2.266 10.965-5.41a15.205 15.205 0 003.435-5.92c.287-1.444.385-2.918.293-4.387-6.36-1.9-12.72 4.313-19.445 3.728-4.751-.438-6.36-6.652-9.283-8.99l-.95.876c-2.194 2.559-1.536 5.848-.074 8.626 2.559 4.898 6.872 8.26 10.746 11.988h1.608zm24.927-3.728v-.658c-2.047 5.19-9.43 8.26-14.4 9.21l-1.755.293a7.237 7.237 0 013.216.731c4.167 2.266 5.19 3.363 11.842-2.631-.073 0 1.024-1.682 1.097-6.945z" fill="#00B2FF" fill-rule="nonzero"/><path d="M66.374 134.284c-6.286-1.609-10.453-8.553-8.845-11.842 1.608-3.29 3.436.073 5.19 1.827 1.755 1.754 7.383 1.974 11.038 3.29 3.655 1.315 7.603 8.04 6.433 10.599-1.17 2.558-13.816-3.874-13.816-3.874z" fill="#71CDFB" fill-rule="nonzero"/><path d="M63.743 150.512c2.924 4.532 10.526 5.92 13.523 1.462 2.997-4.46 8.333-8.553 5.921-13.378 3.874 1.901 5.336 11.77 9.576 14.913 4.24 3.143 11.038 4.24 13.816 8.406 2.778 4.167 5.702 31.36-3.29 31.798-8.99.439-15.643 1.243-23.172-8.48-7.53-9.721-2.778-18.932-7.675-23.683-4.898-4.752-14.036-11.185-8.7-11.038z" fill="#FDB02A" fill-rule="nonzero"/><path d="M109.284 182.456l-2.486.293c-4.605.584-10.307 2.12-14.766.219-8.187-3.436-11.403-15.863-13.743-24.708a18.202 18.202 0 01-3.362-4.24c-3.582 1.682-8.845.147-11.184-3.435-5.337-.146 3.874 6.213 8.772 11.038 4.897 4.824.073 13.962 7.675 23.684 7.602 9.722 14.181 8.918 23.173 8.48 3.8-.293 5.482-5.337 5.92-11.33z" fill="#FF9100" fill-rule="nonzero"/><path d="M99.123 156.944c11.184 4.24 11.696 19.152 10.088 29.313" stroke="#FF7E00" stroke-width="2.12" stroke-linecap="round" stroke-linejoin="round"/><path d="M80.775 158.626c6.14-3.363 6.725-9.722 5.117-15.936a24.415 24.415 0 00-.804-2.412 5.482 5.482 0 00-1.9-1.755c2.338 4.898-4.46 10.234-7.603 12.427-3.143 2.193-8.918 4.094-11.842-.438-4.679-.073 1.973 4.897 6.944 9.283a13.52 13.52 0 0010.088-1.17z" fill="#004B82" fill-rule="nonzero"/><path d="M55.921 145.102c-5.263-6.14-3.582-11.55-3.582-11.55m14.839 5.118c-5.336.146-6.067-7.383-6.067-7.383" stroke="#008CF7" stroke-width="2.12" stroke-linecap="round" stroke-linejoin="round"/><path d="M112.354 160.6c-2.486-3.144-9.942-2.705-9.942-2.705" stroke="#FF7E00" stroke-width="2.12" stroke-linecap="round" stroke-linejoin="round"/><path d="M237.354 10.6a1.389 1.389 0 00-.95-1.316l-.585-.22a2.193 2.193 0 00-2.12.585l-11.477 10.892a.512.512 0 00.585.804l13.45-8.187a2.193 2.193 0 001.097-1.9v-.659zm5.921 20.613c-5.702.293-11.404.439-17.105.878-.366 0-.585.658-.074.73 5.556.95 11.112 1.609 16.667 2.34 2.997.512 3.363-4.094.512-3.948zm-4.386 20.03c-4.46-1.828-8.772-4.386-13.231-6.433a.376.376 0 10-.366.658c3.875 2.924 8.188 5.482 11.989 8.552a1.681 1.681 0 101.608-2.777z" fill="#B7EBFF" fill-rule="nonzero"/><g transform="translate(168.86 51.17)" fill="#004392" fill-rule="nonzero"><ellipse transform="rotate(-5.9 1.936 3.572)" cx="1.936" cy="3.572" rx="1.316" ry="1.535"/><ellipse transform="rotate(-5.9 19.521 2.07)" cx="19.521" cy="2.069" rx="1.316" ry="1.535"/></g><path d="M181.506 62.573c-.731.731-2.266.512-2.997-.146a2.193 2.193 0 01-.366-2.559 11.33 11.33 0 011.17-1.388c.429-.45.544-1.114.292-1.682" stroke="#008CF7" stroke-width="2.12" stroke-linecap="round" stroke-linejoin="round"/><path d="M178.363 70.833a9.43 9.43 0 014.678-.073" stroke="#0061D0" stroke-width="2.12" stroke-linecap="round" stroke-linejoin="round"/><path d="M184.21 44.81c3.29-2.559 6.14-1.681 8.115 1.681m-28.363.731c2.85-6.067 8.845-1.9 8.845-1.9" stroke="#1273E9" stroke-width="2.12" stroke-linecap="round" stroke-linejoin="round"/><path d="M156.652 28.216c4.24 6.872 14.985 9.065 21.272 1.974" stroke="#FFD241" stroke-width="2.12" stroke-linecap="round" stroke-linejoin="round"/><path d="M145.102 37.208c2.924 6.432 7.822 6.14 16.594 1.315m22.441-21.637c5.044 3.29 6.726 7.237 1.755 14.84m2.704-18.349c5.41 2.705 7.53 6.433 3.363 14.547" stroke="#FFDB79" stroke-width="2.12" stroke-linecap="round" stroke-linejoin="round"/><path d="M205.994 45.322c-3.07 1.096-5.92 4.459-5.482 7.529m-50.147-2.705c3.144 0 6.287 4.752 6.799 6.506m-4.167-1.901c1.462-.584 3.509.731 3.509.731m48.538-5.336c-1.755.073-4.605 1.535-4.605 1.535" stroke="#008CF7" stroke-width="2.12" stroke-linecap="round" stroke-linejoin="round"/><path d="M234.576 159.65c9.21-10.015 17.105-5.264 17.105-5.264m-16.593-2.193c5.994-.292 8.918 1.023 8.918 1.023M129.46 208.553c6.944 0 12.572-10.82 12.572-10.82m92.544 3.071c-3.143.073-13.304-9.576-13.304-9.576m-47.149-88.888c-.512 35.745-17.763 145.028-24.927 158.698m43.202-154.02c8.114 24.488 20.321 145.76 19.956 154.02m-87.208 211.769c7.676-1.608 16.813 3.582 16.813 3.582m-13.889-7.383c5.921-1.681 15.936 3.509 15.936 3.509m-13.085-7.675c3.947-1.39 11.623 1.169 11.623 1.169" stroke="#FF7E00" stroke-width="2.12" stroke-linecap="round" stroke-linejoin="round"/><path d="M226.462 281.36c-6.287-1.462-9.65-11.77-9.65-11.77m-83.113 11.77c6.213-2.632 8.845-11.77 8.845-11.77m36.257 11.77c-.73-3.436 0-11.77 0-11.77m6.359 11.77v-12.427" stroke="#0052AA" stroke-width="2.12" stroke-linecap="round" stroke-linejoin="round"/><path stroke="#0061D0" stroke-width="2.12" stroke-linecap="round" stroke-linejoin="round" d="M150.073 449.123l-14.693-.146m84.869 7.31c-3.51-.439-14.986 1.462-14.986 1.462"/><path d="M167.032 12.5c5.556-3.436 11.623-1.023 11.623-1.023m-7.822-4.898c5.556-3.436 11.623-1.023 11.623-1.023" stroke="#F5F8F9" stroke-width="2.12" stroke-linecap="round" stroke-linejoin="round"/><path d="M223.977 112.208c-5.264 4.97-5.483 12.134-5.483 12.134m-82.237-20.614c-4.02-10.234-11.33-13.523-11.33-13.523m-10.453 22.003c-1.682-4.971 6.652-.293 12.427 7.602-6.287-3.363-14.62-2.997-14.62-2.997" stroke="#FF7E00" stroke-width="2.12" stroke-linecap="round" stroke-linejoin="round"/><path d="M115.716 489.108c4.313 3.801 20.614 7.456 28.875 0 4.093-2.631 15.204-4.678 15.204-4.678m86.111 8.26c-9.649 5.336-21.856 4.678-27.12-.22-5.263-4.897-16.008-5.993-16.008-5.993" stroke="#FFDB79" stroke-width="2.12" stroke-linecap="round" stroke-linejoin="round"/><path d="M114.693 170.687c-1.097-5.848-8.041-10.014-9.795-10.672m120.248-41.74c-3.362 1.681-5.994 11.111-5.994 11.111" stroke="#FF7E00" stroke-width="2.12" stroke-linecap="round" stroke-linejoin="round"/></g></svg>